STARTFONT 2.1
FONT -NFP-Vizung-Medium-R-Normal--12-120-75-75-P-50-ISO8859-1
SIZE 1 75 75
FONTBOUNDINGBOX 8 10 0 -2
STARTPROPERTIES 20
POINT_SIZE 12
PIXEL_SIZE 80
RESOLUTION_X 75
RESOLUTION_Y 75
AVERAGE_WIDTH 50
_XMBDFED_INFO "Edited with xmbdfed 4.5."
CAP_HEIGHT 6
X_HEIGHT 5
FOUNDRY "LFP"
FAMILY_NAME "Vizing"
WEIGHT_NAME "Medium"
SLANT "R"
SETWIDTH_NAME "Normal"
CHARSET_REGISTRY "ISO8859"
CHARSET_ENCODING "1"
WEIGHT 10
RESOLUTION 103
QUAD_WIDTH 5
FONT_ASCENT 8
FONT_DESCENT 2
ENDPROPERTIES
CHARS 194
STARTCHAR char1
ENCODING -1
SWIDTH 4800 0
DWIDTH 5 0
BBX 5 8 0 -1
BITMAP
70
88
D8
88
F8
A8
88
70
ENDCHAR
STARTCHAR char0
ENCODING 1
SWIDTH 4800 0
DWIDTH 5 0
BBX 0 0 0 0
BITMAP
ENDCHAR
STARTCHAR char2
ENCODING 2
SWIDTH 4800 0
DWIDTH 5 0
BBX 5 8 0 -1
BITMAP
70
F8
A8
F8
88
D8
F8
70
ENDCHAR
STARTCHAR char3
ENCODING 3
SWIDTH 4800 0
DWIDTH 5 0
BBX 5 5 0 0
BITMAP
D8
F8
F8
70
20
ENDCHAR
STARTCHAR char4
ENCODING 4
SWIDTH 4800 0
DWIDTH 5 0
BBX 5 5 0 0
BITMAP
20
70
F8
70
20
ENDCHAR
STARTCHAR char5
ENCODING 5
SWIDTH 4800 0
DWIDTH 5 0
BBX 5 7 0 0
BITMAP
70
70
F8
F8
A8
20
70
ENDCHAR
STARTCHAR char6
ENCODING 6
SWIDTH 4800 0
DWIDTH 5 0
BBX 5 6 0 0
BITMAP
20
70
F8
F8
A8
70
ENDCHAR
STARTCHAR char14
ENCODING 14
SWIDTH 4800 0
DWIDTH 5 0
BBX 2 3 1 2
BITMAP
C0
C0
C0
ENDCHAR
STARTCHAR char23
ENCODING 17
SWIDTH 4800 0
DWIDTH 5 0
BBX 4 2 0 0
BITMAP
F0
F0
ENDCHAR
STARTCHAR char24
ENCODING 18
SWIDTH 4800 0
DWIDTH 5 0
BBX 4 7 0 0
BITMAP
20
70
20
20
70
20
F0
ENDCHAR
STARTCHAR char19
ENCODING 19
SWIDTH 4800 0
DWIDTH 5 0
BBX 3 8 1 0
BITMAP
40
C0
40
40
40
40
E0
40
ENDCHAR
STARTCHAR char20
ENCODING 20
SWIDTH 4800 0
DWIDTH 5 0
BBX 3 8 1 0
BITMAP
A0
A0
A0
A0
A0
00
A0
A0
ENDCHAR
STARTCHAR char21
ENCODING 21
SWIDTH 4800 0
DWIDTH 5 0
BBX 4 6 0 0
BITMAP
F0
D0
50
50
50
50
ENDCHAR
STARTCHAR char22
ENCODING 22
SWIDTH 4800 0
DWIDTH 5 0
BBX 4 7 0 0
BITMAP
70
90
60
90
60
90
E0
ENDCHAR
STARTCHAR char23
ENCODING 23
SWIDTH 4800 0
DWIDTH 5 0
BBX 4 2 0 0
BITMAP
F0
F0
ENDCHAR
STARTCHAR char24
ENCODING 24
SWIDTH 4800 0
DWIDTH 5 0
BBX 4 7 0 0
BITMAP
20
70
20
20
70
20
F0
ENDCHAR
STARTCHAR char26
ENCODING 26
SWIDTH 4800 0
DWIDTH 5 0
BBX 3 4 1 1
BITMAP
40
40
E0
40
ENDCHAR
STARTCHAR char28
ENCODING 28
SWIDTH 4800 0
DWIDTH 5 0
BBX 4 3 0 2
BITMAP
80
80
F0
ENDCHAR
STARTCHAR char29
ENCODING 29
SWIDTH 4800 0
DWIDTH 5 0
BBX 5 3 0 2
BITMAP
50
F8
50
ENDCHAR
STARTCHAR char30
ENCODING 30
SWIDTH 4800 0
DWIDTH 5 0
BBX 5 3 0 2
BITMAP
20
70
F8
ENDCHAR
STARTCHAR char31
ENCODING 31
SWIDTH 4800 0
DWIDTH 5 0
BBX 5 3 0 2
BITMAP
F8
70
20
ENDCHAR
STARTCHAR char32
ENCODING 32
SWIDTH 3840 0
DWIDTH 4 0
BBX 0 0 0 0
BITMAP
ENDCHAR
STARTCHAR char33
ENCODING 33
SWIDTH 1920 0
DWIDTH 2 0
BBX 1 8 1 0
BITMAP
80
80
80
80
80
80
00
80
ENDCHAR
STARTCHAR char34
ENCODING 34
SWIDTH 3840 0
DWIDTH 4 0
BBX 3 2 1 6
BITMAP
A0
A0
ENDCHAR
STARTCHAR char35
ENCODING 35
SWIDTH 5760 0
DWIDTH 6 0
BBX 5 5 1 1
BITMAP
50
F8
50
F8
50
ENDCHAR
STARTCHAR char36
ENCODING 36
SWIDTH 5760 0
DWIDTH 6 0
BBX 6 7 0 0
BITMAP
7C
50
50
7C
14
14
7C
ENDCHAR
STARTCHAR char37
ENCODING 37
SWIDTH 4800 0
DWIDTH 5 0
BBX 4 8 1 -1
BITMAP
10
90
20
20
40
40
90
80
ENDCHAR
STARTCHAR char38
ENCODING 38
SWIDTH 6720 0
DWIDTH 7 0
BBX 6 7 1 0
BITMAP
20
50
30
60
9C
88
74
ENDCHAR
STARTCHAR char39
ENCODING 39
SWIDTH 2880 0
DWIDTH 3 0
BBX 1 2 2 6
BITMAP
80
80
ENDCHAR
STARTCHAR char40
ENCODING 40
SWIDTH 3840 0
DWIDTH 4 0
BBX 4 9 0 -2
BITMAP
10
20
40
40
40
40
40
20
10
ENDCHAR
STARTCHAR char41
ENCODING 41
SWIDTH 3840 0
DWIDTH 4 0
BBX 4 9 0 -2
BITMAP
40
20
10
10
10
10
10
20
40
ENDCHAR
STARTCHAR char42
ENCODING 42
SWIDTH 3840 0
DWIDTH 4 0
BBX 3 3 1 4
BITMAP
A0
40
A0
ENDCHAR
STARTCHAR char43
ENCODING 43
SWIDTH 5760 0
DWIDTH 6 0
BBX 5 5 1 1
BITMAP
20
20
F8
20
20
ENDCHAR
STARTCHAR char44
ENCODING 44
SWIDTH 2880 0
DWIDTH 3 0
BBX 3 3 0 -1
BITMAP
20
20
40
ENDCHAR
STARTCHAR char45
ENCODING 45
SWIDTH 5760 0
DWIDTH 6 0
BBX 5 1 1 3
BITMAP
F8
ENDCHAR
STARTCHAR char46
ENCODING 46
SWIDTH 1920 0
DWIDTH 2 0
BBX 2 1 0 0
BITMAP
40
ENDCHAR
STARTCHAR char47
ENCODING 47
SWIDTH 4800 0
DWIDTH 5 0
BBX 5 8 0 -1
BITMAP
08
08
10
10
20
20
40
40
ENDCHAR
STARTCHAR char79
ENCODING 48
SWIDTH 5760 0
DWIDTH 6 0
BBX 5 6 1 0
BITMAP
F8
88
98
A8
C8
F8
ENDCHAR
STARTCHAR char49
ENCODING 49
SWIDTH 2880 0
DWIDTH 3 0
BBX 3 6 0 0
BITMAP
60
20
20
20
20
20
ENDCHAR
STARTCHAR char50
ENCODING 50
SWIDTH 5760 0
DWIDTH 6 0
BBX 5 6 1 0
BITMAP
F8
08
F8
80
80
F8
ENDCHAR
STARTCHAR char51
ENCODING 51
SWIDTH 5760 0
DWIDTH 6 0
BBX 5 6 1 0
BITMAP
F8
08
F8
08
08
F8
ENDCHAR
STARTCHAR char52
ENCODING 52
SWIDTH 5760 0
DWIDTH 6 0
BBX 5 6 1 0
BITMAP
88
88
F8
08
08
08
ENDCHAR
STARTCHAR char53
ENCODING 53
SWIDTH 5760 0
DWIDTH 6 0
BBX 5 6 1 0
BITMAP
F8
80
F8
08
08
F8
ENDCHAR
STARTCHAR char54
ENCODING 54
SWIDTH 5760 0
DWIDTH 6 0
BBX 5 6 1 0
BITMAP
F8
80
F8
88
88
F8
ENDCHAR
STARTCHAR char55
ENCODING 55
SWIDTH 5760 0
DWIDTH 6 0
BBX 5 6 1 0
BITMAP
F8
08
08
08
08
08
ENDCHAR
STARTCHAR char56
ENCODING 56
SWIDTH 5760 0
DWIDTH 6 0
BBX 5 6 1 0
BITMAP
F8
88
F8
88
88
F8
ENDCHAR
STARTCHAR char57
ENCODING 57
SWIDTH 5760 0
DWIDTH 6 0
BBX 5 6 1 0
BITMAP
F8
88
F8
08
08
F8
ENDCHAR
STARTCHAR char58
ENCODING 58
SWIDTH 1920 0
DWIDTH 2 0
BBX 1 4 1 1
BITMAP
80
00
00
80
ENDCHAR
STARTCHAR char59
ENCODING 59
SWIDTH 2880 0
DWIDTH 3 0
BBX 2 5 1 0
BITMAP
40
00
00
40
80
ENDCHAR
STARTCHAR char60
ENCODING 60
SWIDTH 3840 0
DWIDTH 4 0
BBX 3 5 1 1
BITMAP
20
40
80
40
20
ENDCHAR
STARTCHAR char61
ENCODING 61
SWIDTH 4800 0
DWIDTH 5 0
BBX 4 3 1 2
BITMAP
F0
00
F0
ENDCHAR
STARTCHAR char62
ENCODING 62
SWIDTH 4800 0
DWIDTH 5 0
BBX 3 5 2 1
BITMAP
80
40
20
40
80
ENDCHAR
STARTCHAR char63
ENCODING 63
SWIDTH 4800 0
DWIDTH 5 0
BBX 4 6 1 0
BITMAP
F0
10
70
40
00
40
ENDCHAR
STARTCHAR char64
ENCODING 64
SWIDTH 5760 0
DWIDTH 6 0
BBX 5 7 1 0
BITMAP
F8
88
A8
A8
E8
08
F8
ENDCHAR
STARTCHAR char65
ENCODING 65
SWIDTH 5760 0
DWIDTH 6 0
BBX 6 6 0 0
BITMAP
7C
44
7C
44
44
44
ENDCHAR
STARTCHAR char66
ENCODING 66
SWIDTH 5760 0
DWIDTH 6 0
BBX 6 6 0 0
BITMAP
7C
44
78
44
44
7C
ENDCHAR
STARTCHAR char67
ENCODING 67
SWIDTH 5760 0
DWIDTH 6 0
BBX 6 6 0 0
BITMAP
7C
40
40
40
40
7C
ENDCHAR
STARTCHAR char68
ENCODING 68
SWIDTH 5760 0
DWIDTH 6 0
BBX 6 6 0 0
BITMAP
78
44
44
44
44
78
ENDCHAR
STARTCHAR char69
ENCODING 69
SWIDTH 4800 0
DWIDTH 5 0
BBX 5 6 0 0
BITMAP
78
40
78
40
40
78
ENDCHAR
STARTCHAR char70
ENCODING 70
SWIDTH 4800 0
DWIDTH 5 0
BBX 4 6 1 0
BITMAP
F0
80
F0
80
80
80
ENDCHAR
STARTCHAR char71
ENCODING 71
SWIDTH 5760 0
DWIDTH 6 0
BBX 5 6 1 0
BITMAP
F8
80
B8
88
88
F8
ENDCHAR
STARTCHAR char72
ENCODING 72
SWIDTH 5760 0
DWIDTH 6 0
BBX 6 6 0 0
BITMAP
44
44
7C
44
44
44
ENDCHAR
STARTCHAR char73
ENCODING 73
SWIDTH 1920 0
DWIDTH 2 0
BBX 1 6 1 0
BITMAP
80
80
80
80
80
80
ENDCHAR
STARTCHAR char74
ENCODING 74
SWIDTH 4800 0
DWIDTH 5 0
BBX 4 6 1 0
BITMAP
10
10
10
10
90
F0
ENDCHAR
STARTCHAR char75
ENCODING 75
SWIDTH 5760 0
DWIDTH 6 0
BBX 5 6 1 0
BITMAP
88
90
E0
90
88
88
ENDCHAR
STARTCHAR char76
ENCODING 76
SWIDTH 5760 0
DWIDTH 6 0
BBX 5 6 1 0
BITMAP
80
80
80
80
80
F0
ENDCHAR
STARTCHAR char77
ENCODING 77
SWIDTH 7680 0
DWIDTH 8 0
BBX 8 6 0 0
BITMAP
7F
49
49
49
49
49
ENDCHAR
STARTCHAR char78
ENCODING 78
SWIDTH 5760 0
DWIDTH 6 0
BBX 5 6 1 0
BITMAP
88
C8
A8
A8
98
88
ENDCHAR
STARTCHAR char79
ENCODING 79
SWIDTH 5760 0
DWIDTH 6 0
BBX 5 6 1 0
BITMAP
F8
88
88
88
88
F8
ENDCHAR
STARTCHAR char80
ENCODING 80
SWIDTH 5760 0
DWIDTH 6 0
BBX 6 6 0 0
BITMAP
7C
44
7C
40
40
40
ENDCHAR
STARTCHAR char81
ENCODING 81
SWIDTH 6720 0
DWIDTH 7 0
BBX 6 7 1 -1
BITMAP
F8
88
88
88
88
F8
0C
ENDCHAR
STARTCHAR char82
ENCODING 82
SWIDTH 5760 0
DWIDTH 6 0
BBX 5 6 1 0
BITMAP
F8
88
F8
90
88
88
ENDCHAR
STARTCHAR char83
ENCODING 83
SWIDTH 5760 0
DWIDTH 6 0
BBX 5 6 1 0
BITMAP
F8
80
F8
08
08
F8
ENDCHAR
STARTCHAR char84
ENCODING 84
SWIDTH 5760 0
DWIDTH 6 0
BBX 6 6 0 0
BITMAP
7C
10
10
10
10
10
ENDCHAR
STARTCHAR char85
ENCODING 85
SWIDTH 5760 0
DWIDTH 6 0
BBX 5 6 1 0
BITMAP
88
88
88
88
88
F8
ENDCHAR
STARTCHAR char86
ENCODING 86
SWIDTH 5760 0
DWIDTH 6 0
BBX 6 6 0 0
BITMAP
44
44
44
44
28
10
ENDCHAR
STARTCHAR char87
ENCODING 87
SWIDTH 7680 0
DWIDTH 8 0
BBX 7 6 1 0
BITMAP
92
92
92
92
92
FE
ENDCHAR
STARTCHAR char88
ENCODING 88
SWIDTH 6720 0
DWIDTH 7 0
BBX 7 6 0 0
BITMAP
42
24
18
18
24
42
ENDCHAR
STARTCHAR char89
ENCODING 89
SWIDTH 5760 0
DWIDTH 6 0
BBX 6 6 0 0
BITMAP
44
28
10
10
10
10
ENDCHAR
STARTCHAR char90
ENCODING 90
SWIDTH 6720 0
DWIDTH 7 0
BBX 6 6 1 0
BITMAP
FC
08
10
20
40
FC
ENDCHAR
STARTCHAR char91
ENCODING 91
SWIDTH 1920 0
DWIDTH 2 0
BBX 2 7 1 0
BITMAP
C0
80
80
80
80
80
C0
ENDCHAR
STARTCHAR char92
ENCODING 92
SWIDTH 4800 0
DWIDTH 5 0
BBX 5 8 0 -1
BITMAP
40
40
20
20
10
10
08
08
ENDCHAR
STARTCHAR char93
ENCODING 93
SWIDTH 2880 0
DWIDTH 3 0
BBX 3 7 0 0
BITMAP
60
20
20
20
20
20
60
ENDCHAR
STARTCHAR char94
ENCODING 94
SWIDTH 3840 0
DWIDTH 4 0
BBX 3 3 1 4
BITMAP
40
E0
40
ENDCHAR
STARTCHAR char95
ENCODING 95
SWIDTH 5760 0
DWIDTH 6 0
BBX 6 1 0 -1
BITMAP
7C
ENDCHAR
STARTCHAR char96
ENCODING 96
SWIDTH 1920 0
DWIDTH 2 0
BBX 1 2 1 6
BITMAP
80
80
ENDCHAR
STARTCHAR char97
ENCODING 97
SWIDTH 5760 0
DWIDTH 6 0
BBX 5 5 1 0
BITMAP
F8
08
F8
88
F8
ENDCHAR
STARTCHAR char98
ENCODING 98
SWIDTH 5760 0
DWIDTH 6 0
BBX 5 8 1 0
BITMAP
80
80
80
F8
88
88
88
F8
ENDCHAR
STARTCHAR char97
ENCODING 99
SWIDTH 5760 0
DWIDTH 6 0
BBX 5 5 1 0
BITMAP
F8
80
80
80
F8
ENDCHAR
STARTCHAR char100
ENCODING 100
SWIDTH 5760 0
DWIDTH 6 0
BBX 5 8 1 0
BITMAP
08
08
08
F8
88
88
88
F8
ENDCHAR
STARTCHAR char101
ENCODING 101
SWIDTH 5760 0
DWIDTH 6 0
BBX 5 5 1 0
BITMAP
F8
88
F8
80
F8
ENDCHAR
STARTCHAR char102
ENCODING 102
SWIDTH 3840 0
DWIDTH 4 0
BBX 3 7 1 0
BITMAP
60
40
E0
40
40
40
40
ENDCHAR
STARTCHAR char103
ENCODING 103
SWIDTH 5760 0
DWIDTH 6 0
BBX 5 7 1 -2
BITMAP
F8
88
88
88
F8
08
F8
ENDCHAR
STARTCHAR char104
ENCODING 104
SWIDTH 5760 0
DWIDTH 6 0
BBX 5 7 1 0
BITMAP
80
80
F8
88
88
88
88
ENDCHAR
STARTCHAR char105
ENCODING 105
SWIDTH 1920 0
DWIDTH 2 0
BBX 1 7 1 0
BITMAP
80
00
80
80
80
80
80
ENDCHAR
STARTCHAR char106
ENCODING 106
SWIDTH 1920 0
DWIDTH 2 0
BBX 2 9 0 -2
BITMAP
40
00
40
40
40
40
40
40
C0
ENDCHAR
STARTCHAR char107
ENCODING 107
SWIDTH 5760 0
DWIDTH 6 0
BBX 5 7 1 0
BITMAP
80
80
88
90
E0
90
88
ENDCHAR
STARTCHAR char108
ENCODING 108
SWIDTH 1920 0
DWIDTH 2 0
BBX 2 7 0 0
BITMAP
40
40
40
40
40
40
40
ENDCHAR
STARTCHAR char109
ENCODING 109
SWIDTH 7680 0
DWIDTH 8 0
BBX 7 5 1 0
BITMAP
FE
92
92
92
92
ENDCHAR
STARTCHAR char110
ENCODING 110
SWIDTH 5760 0
DWIDTH 6 0
BBX 5 5 1 0
BITMAP
F8
88
88
88
88
ENDCHAR
STARTCHAR char111
ENCODING 111
SWIDTH 5760 0
DWIDTH 6 0
BBX 6 5 0 0
BITMAP
7C
44
44
44
7C
ENDCHAR
STARTCHAR char112
ENCODING 112
SWIDTH 5760 0
DWIDTH 6 0
BBX 5 7 1 -2
BITMAP
F8
88
88
88
F8
80
80
ENDCHAR
STARTCHAR char113
ENCODING 113
SWIDTH 5760 0
DWIDTH 6 0
BBX 5 7 1 -2
BITMAP
F8
88
88
88
F8
08
08
ENDCHAR
STARTCHAR char114
ENCODING 114
SWIDTH 3840 0
DWIDTH 4 0
BBX 4 5 0 0
BITMAP
70
40
40
40
40
ENDCHAR
STARTCHAR char115
ENCODING 115
SWIDTH 5760 0
DWIDTH 6 0
BBX 6 5 0 0
BITMAP
7C
40
7C
04
7C
ENDCHAR
STARTCHAR char116
ENCODING 116
SWIDTH 3840 0
DWIDTH 4 0
BBX 4 6 0 0
BITMAP
20
70
20
20
20
20
ENDCHAR
STARTCHAR char117
ENCODING 117
SWIDTH 5760 0
DWIDTH 6 0
BBX 6 5 0 0
BITMAP
44
44
44
44
7C
ENDCHAR
STARTCHAR char118
ENCODING 118
SWIDTH 5760 0
DWIDTH 6 0
BBX 6 5 0 0
BITMAP
44
44
44
28
10
ENDCHAR
STARTCHAR char119
ENCODING 119
SWIDTH 7680 0
DWIDTH 8 0
BBX 7 5 1 0
BITMAP
92
92
92
92
FE
ENDCHAR
STARTCHAR char120
ENCODING 120
SWIDTH 5760 0
DWIDTH 6 0
BBX 6 5 0 0
BITMAP
44
28
10
28
44
ENDCHAR
STARTCHAR char121
ENCODING 121
SWIDTH 5760 0
DWIDTH 6 0
BBX 6 7 0 -2
BITMAP
44
44
44
44
7C
04
7C
ENDCHAR
STARTCHAR char122
ENCODING 122
SWIDTH 5760 0
DWIDTH 6 0
BBX 6 5 0 0
BITMAP
7C
08
10
20
7C
ENDCHAR
STARTCHAR char123
ENCODING 123
SWIDTH 3840 0
DWIDTH 4 0
BBX 3 5 1 1
BITMAP
20
40
80
40
20
ENDCHAR
STARTCHAR char124
ENCODING 124
SWIDTH 1920 0
DWIDTH 2 0
BBX 2 7 0 0
BITMAP
40
40
40
00
40
40
40
ENDCHAR
STARTCHAR char125
ENCODING 125
SWIDTH 3840 0
DWIDTH 4 0
BBX 3 5 1 1
BITMAP
80
40
20
40
80
ENDCHAR
STARTCHAR char126
ENCODING 126
SWIDTH 4800 0
DWIDTH 5 0
BBX 4 2 1 6
BITMAP
50
A0
ENDCHAR
STARTCHAR char155
ENCODING 155
SWIDTH 5760 0
DWIDTH 6 0
BBX 5 10 1 -2
BITMAP
40
40
F8
80
80
80
80
F8
40
40
ENDCHAR
STARTCHAR char156
ENCODING 156
SWIDTH 4800 0
DWIDTH 5 0
BBX 4 8 1 -1
BITMAP
F0
90
80
80
C0
80
F0
90
ENDCHAR
STARTCHAR char159
ENCODING 159
SWIDTH 4800 0
DWIDTH 5 0
BBX 4 10 1 -2
BITMAP
70
50
40
40
E0
40
40
40
40
C0
ENDCHAR
STARTCHAR char155
ENCODING 162
SWIDTH 5760 0
DWIDTH 6 0
BBX 5 10 1 -2
BITMAP
40
40
F8
80
80
80
80
F8
40
40
ENDCHAR
STARTCHAR char159
ENCODING 163
SWIDTH 4800 0
DWIDTH 5 0
BBX 4 10 1 -2
BITMAP
70
50
40
40
E0
40
40
40
40
C0
ENDCHAR
STARTCHAR char166
ENCODING 166
SWIDTH 1920 0
DWIDTH 2 0
BBX 1 9 1 -1
BITMAP
80
80
80
80
00
80
80
80
80
ENDCHAR
STARTCHAR char159
ENCODING 167
SWIDTH 4800 0
DWIDTH 5 0
BBX 4 10 1 -2
BITMAP
70
50
40
40
E0
40
40
40
40
C0
ENDCHAR
STARTCHAR char169
ENCODING 169
SWIDTH 6720 0
DWIDTH 7 0
BBX 6 7 1 0
BITMAP
FC
84
B4
A4
B4
84
FC
ENDCHAR
STARTCHAR char170
ENCODING 170
SWIDTH 4800 0
DWIDTH 5 0
BBX 4 7 1 0
BITMAP
F0
10
F0
90
F0
00
F0
ENDCHAR
STARTCHAR char169
ENCODING 174
SWIDTH 6720 0
DWIDTH 7 0
BBX 7 8 0 -1
BITMAP
FE
82
B2
AA
B2
AA
82
FE
ENDCHAR
STARTCHAR char188
ENCODING 188
SWIDTH 5760 0
DWIDTH 6 0
BBX 4 9 1 -1
BITMAP
80
80
90
A0
50
90
50
70
10
ENDCHAR
STARTCHAR char189
ENCODING 189
SWIDTH 5760 0
DWIDTH 6 0
BBX 4 9 1 -1
BITMAP
80
80
90
A0
40
B0
10
20
30
ENDCHAR
STARTCHAR char190
ENCODING 190
SWIDTH 4800 0
DWIDTH 5 0
BBX 4 10 1 -2
BITMAP
C0
40
C0
50
E0
40
90
50
70
10
ENDCHAR
STARTCHAR char63
ENCODING 191
SWIDTH 4800 0
DWIDTH 5 0
BBX 4 6 1 0
BITMAP
20
00
20
E0
80
F0
ENDCHAR
STARTCHAR char65
ENCODING 192
SWIDTH 4800 0
DWIDTH 5 0
BBX 5 8 1 0
BITMAP
C0
00
F8
88
F8
88
88
88
ENDCHAR
STARTCHAR char65
ENCODING 193
SWIDTH 4800 0
DWIDTH 5 0
BBX 5 8 1 0
BITMAP
18
00
F8
88
F8
88
88
88
ENDCHAR
STARTCHAR char65
ENCODING 194
SWIDTH 4800 0
DWIDTH 5 0
BBX 5 8 1 0
BITMAP
70
50
00
F8
88
F8
88
88
ENDCHAR
STARTCHAR char65
ENCODING 195
SWIDTH 4800 0
DWIDTH 5 0
BBX 5 8 1 0
BITMAP
30
60
00
F8
88
F8
88
88
ENDCHAR
STARTCHAR char65
ENCODING 196
SWIDTH 4800 0
DWIDTH 5 0
BBX 5 8 1 0
BITMAP
50
00
F8
88
88
F8
88
88
ENDCHAR
STARTCHAR char65
ENCODING 197
SWIDTH 4800 0
DWIDTH 5 0
BBX 5 8 1 0
BITMAP
70
50
20
F8
88
F8
88
88
ENDCHAR
STARTCHAR char65
ENCODING 198
SWIDTH 4800 0
DWIDTH 5 0
BBX 5 6 1 0
BITMAP
F8
A0
F8
A0
A0
B8
ENDCHAR
STARTCHAR char67
ENCODING 199
SWIDTH 4800 0
DWIDTH 5 0
BBX 5 8 1 -2
BITMAP
F8
80
80
80
80
F8
10
30
ENDCHAR
STARTCHAR char69
ENCODING 200
SWIDTH 3840 0
DWIDTH 4 0
BBX 4 8 1 0
BITMAP
C0
00
F0
80
F0
80
80
F0
ENDCHAR
STARTCHAR char69
ENCODING 201
SWIDTH 3840 0
DWIDTH 4 0
BBX 4 8 1 0
BITMAP
30
00
F0
80
F0
80
80
F0
ENDCHAR
STARTCHAR char69
ENCODING 202
SWIDTH 3840 0
DWIDTH 4 0
BBX 4 8 1 0
BITMAP
70
50
00
F0
80
F0
80
F0
ENDCHAR
STARTCHAR char69
ENCODING 203
SWIDTH 3840 0
DWIDTH 4 0
BBX 4 8 1 0
BITMAP
50
00
F0
80
F0
80
80
F0
ENDCHAR
STARTCHAR char73
ENCODING 204
SWIDTH 1920 0
DWIDTH 2 0
BBX 2 8 0 0
BITMAP
C0
00
40
40
40
40
40
40
ENDCHAR
STARTCHAR char73
ENCODING 205
SWIDTH 2880 0
DWIDTH 3 0
BBX 2 8 1 0
BITMAP
C0
00
80
80
80
80
80
80
ENDCHAR
STARTCHAR char73
ENCODING 206
SWIDTH 3840 0
DWIDTH 4 0
BBX 3 8 1 0
BITMAP
E0
A0
00
80
80
80
80
80
ENDCHAR
STARTCHAR char73
ENCODING 207
SWIDTH 2880 0
DWIDTH 3 0
BBX 3 8 0 0
BITMAP
A0
00
40
40
40
40
40
40
ENDCHAR
STARTCHAR char208
ENCODING 208
SWIDTH 3840 0
DWIDTH 4 0
BBX 4 8 0 0
BITMAP
F0
10
90
90
D0
90
90
F0
ENDCHAR
STARTCHAR char78
ENCODING 209
SWIDTH 5760 0
DWIDTH 6 0
BBX 5 8 1 0
BITMAP
70
00
88
C8
A8
A8
98
88
ENDCHAR
STARTCHAR char79
ENCODING 210
SWIDTH 5760 0
DWIDTH 6 0
BBX 5 8 1 0
BITMAP
C0
00
F8
88
88
88
88
F8
ENDCHAR
STARTCHAR char79
ENCODING 211
SWIDTH 5760 0
DWIDTH 6 0
BBX 5 8 1 0
BITMAP
18
00
F8
88
88
88
88
F8
ENDCHAR
STARTCHAR char79
ENCODING 212
SWIDTH 5760 0
DWIDTH 6 0
BBX 5 8 1 0
BITMAP
70
50
00
F8
88
88
88
F8
ENDCHAR
STARTCHAR char79
ENCODING 213
SWIDTH 5760 0
DWIDTH 6 0
BBX 5 8 1 0
BITMAP
30
60
00
F8
88
88
88
F8
ENDCHAR
STARTCHAR char79
ENCODING 214
SWIDTH 5760 0
DWIDTH 6 0
BBX 5 8 1 0
BITMAP
50
70
00
F8
88
88
88
F8
ENDCHAR
STARTCHAR char88
ENCODING 215
SWIDTH 6720 0
DWIDTH 7 0
BBX 7 6 0 0
BITMAP
42
24
18
18
24
42
ENDCHAR
STARTCHAR char48
ENCODING 216
SWIDTH 4800 0
DWIDTH 5 0
BBX 5 6 1 0
BITMAP
F8
88
F8
88
88
F8
ENDCHAR
STARTCHAR char85
ENCODING 217
SWIDTH 5760 0
DWIDTH 6 0
BBX 5 8 1 0
BITMAP
C0
00
88
88
88
88
88
F8
ENDCHAR
STARTCHAR char85
ENCODING 218
SWIDTH 5760 0
DWIDTH 6 0
BBX 5 8 1 0
BITMAP
18
00
88
88
88
88
88
F8
ENDCHAR
STARTCHAR char85
ENCODING 219
SWIDTH 5760 0
DWIDTH 6 0
BBX 5 8 1 0
BITMAP
70
50
00
88
88
88
88
F8
ENDCHAR
STARTCHAR char85
ENCODING 220
SWIDTH 5760 0
DWIDTH 6 0
BBX 5 8 1 0
BITMAP
50
00
88
88
88
88
88
F8
ENDCHAR
STARTCHAR char221
ENCODING 221
SWIDTH 4800 0
DWIDTH 5 0
BBX 4 8 0 0
BITMAP
30
00
90
90
50
30
10
10
ENDCHAR
STARTCHAR char222
ENCODING 222
SWIDTH 4800 0
DWIDTH 5 0
BBX 4 8 0 0
BITMAP
80
80
E0
90
90
E0
80
80
ENDCHAR
STARTCHAR char66
ENCODING 223
SWIDTH 5760 0
DWIDTH 6 0
BBX 5 8 1 -2
BITMAP
F8
88
F0
88
88
F8
40
C0
ENDCHAR
STARTCHAR char97
ENCODING 224
SWIDTH 5760 0
DWIDTH 6 0
BBX 5 7 1 0
BITMAP
C0
00
F8
08
F8
88
F8
ENDCHAR
STARTCHAR char97
ENCODING 225
SWIDTH 5760 0
DWIDTH 6 0
BBX 5 7 1 0
BITMAP
18
00
F8
08
F8
88
F8
ENDCHAR
STARTCHAR char97
ENCODING 226
SWIDTH 5760 0
DWIDTH 6 0
BBX 5 8 1 0
BITMAP
70
50
00
F8
08
F8
88
F8
ENDCHAR
STARTCHAR char97
ENCODING 227
SWIDTH 5760 0
DWIDTH 6 0
BBX 5 8 1 0
BITMAP
30
60
00
F8
08
F8
88
F8
ENDCHAR
STARTCHAR char97
ENCODING 228
SWIDTH 5760 0
DWIDTH 6 0
BBX 5 7 1 0
BITMAP
50
00
F8
08
F8
88
F8
ENDCHAR
STARTCHAR char97
ENCODING 229
SWIDTH 5760 0
DWIDTH 6 0
BBX 5 8 1 0
BITMAP
20
50
20
F8
08
F8
88
F8
ENDCHAR
STARTCHAR char97
ENCODING 230
SWIDTH 5760 0
DWIDTH 6 0
BBX 5 5 1 0
BITMAP
F8
20
F8
A0
F8
ENDCHAR
STARTCHAR char97
ENCODING 231
SWIDTH 5760 0
DWIDTH 6 0
BBX 5 7 1 -2
BITMAP
F8
80
80
80
F8
20
60
ENDCHAR
STARTCHAR char101
ENCODING 232
SWIDTH 5760 0
DWIDTH 6 0
BBX 5 7 1 0
BITMAP
C0
00
F8
88
F8
80
F8
ENDCHAR
STARTCHAR char101
ENCODING 233
SWIDTH 5760 0
DWIDTH 6 0
BBX 5 7 1 0
BITMAP
18
00
F8
88
F8
80
F8
ENDCHAR
STARTCHAR char101
ENCODING 234
SWIDTH 5760 0
DWIDTH 6 0
BBX 5 8 1 0
BITMAP
70
50
00
F8
88
F8
80
F8
ENDCHAR
STARTCHAR char101
ENCODING 235
SWIDTH 5760 0
DWIDTH 6 0
BBX 5 7 1 0
BITMAP
50
00
F8
88
F8
80
F8
ENDCHAR
STARTCHAR char105
ENCODING 236
SWIDTH 1920 0
DWIDTH 2 0
BBX 2 7 0 0
BITMAP
C0
00
40
40
40
40
40
ENDCHAR
STARTCHAR char105
ENCODING 237
SWIDTH 2880 0
DWIDTH 3 0
BBX 2 7 1 0
BITMAP
C0
00
80
80
80
80
80
ENDCHAR
STARTCHAR char105
ENCODING 238
SWIDTH 2880 0
DWIDTH 3 0
BBX 3 8 0 0
BITMAP
E0
A0
00
40
40
40
40
40
ENDCHAR
STARTCHAR char105
ENCODING 239
SWIDTH 2880 0
DWIDTH 3 0
BBX 3 7 0 0
BITMAP
A0
00
40
40
40
40
40
ENDCHAR
STARTCHAR char240
ENCODING 240
SWIDTH 4800 0
DWIDTH 5 0
BBX 4 8 0 0
BITMAP
50
00
60
10
60
90
90
60
ENDCHAR
STARTCHAR char110
ENCODING 241
SWIDTH 5760 0
DWIDTH 6 0
BBX 5 7 1 0
BITMAP
70
00
F8
88
88
88
88
ENDCHAR
STARTCHAR char111
ENCODING 242
SWIDTH 5760 0
DWIDTH 6 0
BBX 5 7 1 0
BITMAP
C0
00
F8
88
88
88
F8
ENDCHAR
STARTCHAR char111
ENCODING 243
SWIDTH 5760 0
DWIDTH 6 0
BBX 5 7 1 0
BITMAP
18
00
F8
88
88
88
F8
ENDCHAR
STARTCHAR char111
ENCODING 244
SWIDTH 5760 0
DWIDTH 6 0
BBX 5 8 1 0
BITMAP
70
50
00
F8
88
88
88
F8
ENDCHAR
STARTCHAR char111
ENCODING 245
SWIDTH 5760 0
DWIDTH 6 0
BBX 5 8 1 0
BITMAP
30
60
00
F8
88
88
88
F8
ENDCHAR
STARTCHAR char111
ENCODING 246
SWIDTH 4800 0
DWIDTH 5 0
BBX 5 7 1 0
BITMAP
50
00
F8
88
88
88
F8
ENDCHAR
STARTCHAR char247
ENCODING 247
SWIDTH 5760 0
DWIDTH 6 0
BBX 5 7 1 0
BITMAP
20
20
00
F8
00
20
20
ENDCHAR
STARTCHAR char111
ENCODING 248
SWIDTH 6720 0
DWIDTH 7 0
BBX 6 9 1 -2
BITMAP
04
08
F8
A8
A8
A8
F8
40
80
ENDCHAR
STARTCHAR char117
ENCODING 249
SWIDTH 5760 0
DWIDTH 6 0
BBX 5 7 1 0
BITMAP
C0
00
88
88
88
88
F8
ENDCHAR
STARTCHAR char117
ENCODING 250
SWIDTH 5760 0
DWIDTH 6 0
BBX 5 7 1 0
BITMAP
18
00
88
88
88
88
F8
ENDCHAR
STARTCHAR char117
ENCODING 251
SWIDTH 5760 0
DWIDTH 6 0
BBX 5 8 1 0
BITMAP
70
50
00
88
88
88
88
F8
ENDCHAR
STARTCHAR char117
ENCODING 252
SWIDTH 5760 0
DWIDTH 6 0
BBX 5 7 1 0
BITMAP
50
00
88
88
88
88
F8
ENDCHAR
STARTCHAR char121
ENCODING 253
SWIDTH 5760 0
DWIDTH 6 0
BBX 5 9 1 -2
BITMAP
18
00
88
88
88
88
F8
08
F8
ENDCHAR
STARTCHAR char254
ENCODING 254
SWIDTH 4800 0
DWIDTH 5 0
BBX 4 8 1 0
BITMAP
80
80
F0
90
90
F0
80
80
ENDCHAR
STARTCHAR char121
ENCODING 255
SWIDTH 4800 0
DWIDTH 5 0
BBX 5 9 1 -2
BITMAP
50
00
88
88
88
88
F8
08
F8
ENDCHAR
ENDFONT
